# xmcd
#
# Track frame offsets:
#	150
#	5947
#	8028
#	11086
#	15503
#	24076
#	27866
#	36169
#	45690
#	50011
#	53039
#	56889
#	64271
#	69490
#	73220
#	81121
#	84531
#	87918
#	94620
#	102467
#	106047
#	111343
#	114835
#	117744
#	123214
#	126946
#	137957
#	154127
#
# Disc length: 2090 seconds
#
# Revision: 2
# Processed by: cddbd v1.5.2PL0 Copyright (c) Steve Scherf et al.
# Submitted via: audiograbber 1.83.01
#
DISCID=7e08281c
DTITLE=Diverse - Danke, lieber Gott
DYEAR=2006
DGENRE=Chanson
TTITLE0=In der Bibel lesen wir
TTITLE1=Jesus, du liebst Kinder
TTITLE2=Wir halten die Bibel hoch
TTITLE3=Hurra, ich kann pfeifen
TTITLE4=Meine Familie finde ich toll
TTITLE5=Danke, lieber Gott, für das Wasser
TTITLE6=Unser guter Gott schützt uns alle
TTITLE7=Du bist wunderbar gemacht
TTITLE8=Ich freue mich, denn Gott liebt mich so
TTITLE9=Gott hat mich lieb
TTITLE10=Gott hält seine Hand über mir
TTITLE11=Unser guter Gott ist gross
TTITLE12=Hallo du
TTITLE13=Gott hat mich erschaffen
TTITLE14=Hühott, hühott, so reite ich
TTITLE15=Du bist mein besonderer Schatz
TTITLE16=Ich bin dein besonderer Schatz
TTITLE17=Für das Essen danken wir
TTITLE18=Gott denkt jederzeit an mich
TTITLE19=Jesus liebt Tabea ganz gewiss
TTITLE20=Danke, Gott, für den schönen Frühling
TTITLE21=Blumen so bunt und fein
TTITLE22=Gott freut sich, wenn ich tu
TTITLE23=Auf Wiedersehn
TTITLE24=Es ist Abend, es ist finster
TTITLE25=Schlafe, mein Kindlein, schlaf ein
TTITLE26=Träume heut nacht (Der Hirte führt die Schäflein)
TTITLE27=Schlafuhr
EXTD=Lieder für Kinder von 0 - 4\nwww.cap-music.de
EXTT0=
EXTT1=
EXTT2=
EXTT3=
EXTT4=
EXTT5=
EXTT6=
EXTT7=
EXTT8=
EXTT9=
EXTT10=
EXTT11=
EXTT12=
EXTT13=
EXTT14=
EXTT15=
EXTT16=
EXTT17=
EXTT18=
EXTT19=
EXTT20=
EXTT21=
EXTT22=
EXTT23=
EXTT24=
EXTT25=
EXTT26=
EXTT27=
PLAYORDER=
